<mxfile host="Electron" modified="2024-05-05T09:54:07.858Z" agent="Mozilla/5.0 (Windows NT 10.0; Win64; x64) AppleWebKit/537.36 (KHTML, like Gecko) draw.io/24.1.0 Chrome/120.0.6099.109 Electron/28.1.0 Safari/537.36" etag="TR4rUjYukL2K0E3kR9eU" version="24.1.0" type="device">
  <diagram name="第 1 页" id="ublnEDw5Sv28Dn_5G-hy">
    <mxGraphModel dx="893" dy="524" grid="1" gridSize="10" guides="1" tooltips="1" connect="1" arrows="1" fold="1" page="1" pageScale="1" pageWidth="827" pageHeight="1169" math="0" shadow="0">
      <root>
        <mxCell id="0" />
        <mxCell id="1" parent="0" />
        <mxCell id="GIkkizemVKNsBk6xvGax-1" style="edgeStyle=orthogonalEdgeStyle;rounded=1;orthogonalLoop=1;jettySize=auto;html=1;exitX=0;exitY=0.5;exitDx=0;exitDy=0;entryX=0;entryY=0.5;entryDx=0;entryDy=0;" edge="1" parent="1" source="GIkkizemVKNsBk6xvGax-3" target="GIkkizemVKNsBk6xvGax-11">
          <mxGeometry relative="1" as="geometry" />
        </mxCell>
        <mxCell id="GIkkizemVKNsBk6xvGax-2" style="edgeStyle=orthogonalEdgeStyle;rounded=1;orthogonalLoop=1;jettySize=auto;html=1;exitX=0;exitY=0.5;exitDx=0;exitDy=0;entryX=0;entryY=0.5;entryDx=0;entryDy=0;" edge="1" parent="1" source="GIkkizemVKNsBk6xvGax-3" target="GIkkizemVKNsBk6xvGax-10">
          <mxGeometry relative="1" as="geometry" />
        </mxCell>
        <mxCell id="GIkkizemVKNsBk6xvGax-3" value="EXE" style="rounded=1;whiteSpace=wrap;html=1;fillColor=#f8cecc;strokeColor=#b85450;verticalAlign=bottom;spacingBottom=20;" vertex="1" parent="1">
          <mxGeometry x="510" y="320" width="240" height="120" as="geometry" />
        </mxCell>
        <mxCell id="GIkkizemVKNsBk6xvGax-4" value="BranchPredictionUnit" style="rounded=1;whiteSpace=wrap;html=1;fillColor=#dae8fc;strokeColor=#6c8ebf;" vertex="1" parent="1">
          <mxGeometry x="110" y="200" width="240" height="60" as="geometry" />
        </mxCell>
        <mxCell id="GIkkizemVKNsBk6xvGax-6" value="ICache" style="rounded=1;whiteSpace=wrap;html=1;fillColor=#ffe6cc;strokeColor=#d79b00;" vertex="1" parent="1">
          <mxGeometry x="110" y="260" width="240" height="60" as="geometry" />
        </mxCell>
        <mxCell id="GIkkizemVKNsBk6xvGax-7" value="Instr&lt;div&gt;Buffer&lt;/div&gt;" style="rounded=1;whiteSpace=wrap;html=1;fillColor=#e1d5e7;strokeColor=#9673a6;" vertex="1" parent="1">
          <mxGeometry x="110" y="380" width="240" height="60" as="geometry" />
        </mxCell>
        <mxCell id="GIkkizemVKNsBk6xvGax-8" value="Decoder" style="rounded=1;whiteSpace=wrap;html=1;fillColor=#d5e8d4;strokeColor=#82b366;" vertex="1" parent="1">
          <mxGeometry x="110" y="440" width="240" height="60" as="geometry" />
        </mxCell>
        <mxCell id="GIkkizemVKNsBk6xvGax-9" value="Scheduler&lt;div&gt;(stage0)&lt;/div&gt;" style="rounded=1;whiteSpace=wrap;html=1;fillColor=#dae8fc;strokeColor=#6c8ebf;spacingBottom=0;spacingRight=80;" vertex="1" parent="1">
          <mxGeometry x="110" y="500" width="240" height="60" as="geometry" />
        </mxCell>
        <mxCell id="GIkkizemVKNsBk6xvGax-10" value="Scheduler&lt;div&gt;(stage2)&lt;/div&gt;" style="rounded=1;whiteSpace=wrap;html=1;fillColor=#dae8fc;strokeColor=#6c8ebf;spacingRight=80;" vertex="1" parent="1">
          <mxGeometry x="510" y="200" width="240" height="60" as="geometry" />
        </mxCell>
        <mxCell id="GIkkizemVKNsBk6xvGax-11" value="&lt;div&gt;Phy&lt;/div&gt;Regfile" style="rounded=1;whiteSpace=wrap;html=1;fillColor=#ffe6cc;strokeColor=#d79b00;" vertex="1" parent="1">
          <mxGeometry x="510" y="260" width="240" height="60" as="geometry" />
        </mxCell>
        <mxCell id="GIkkizemVKNsBk6xvGax-12" style="edgeStyle=orthogonalEdgeStyle;rounded=1;orthogonalLoop=1;jettySize=auto;html=1;exitX=0.5;exitY=1;exitDx=0;exitDy=0;entryX=0.25;entryY=0;entryDx=0;entryDy=0;" edge="1" parent="1" source="GIkkizemVKNsBk6xvGax-13" target="GIkkizemVKNsBk6xvGax-16">
          <mxGeometry relative="1" as="geometry">
            <mxPoint x="570" y="430" as="targetPoint" />
          </mxGeometry>
        </mxCell>
        <mxCell id="GIkkizemVKNsBk6xvGax-13" value="Mem&lt;div&gt;Block&lt;/div&gt;" style="rounded=1;whiteSpace=wrap;html=1;fillColor=#ffe6cc;strokeColor=#d79b00;" vertex="1" parent="1">
          <mxGeometry x="510" y="320" width="120" height="60" as="geometry" />
        </mxCell>
        <mxCell id="GIkkizemVKNsBk6xvGax-14" style="edgeStyle=orthogonalEdgeStyle;rounded=1;orthogonalLoop=1;jettySize=auto;html=1;exitX=0.5;exitY=1;exitDx=0;exitDy=0;entryX=0.75;entryY=0;entryDx=0;entryDy=0;" edge="1" parent="1" source="GIkkizemVKNsBk6xvGax-15" target="GIkkizemVKNsBk6xvGax-16">
          <mxGeometry relative="1" as="geometry">
            <mxPoint x="690" y="430" as="targetPoint" />
          </mxGeometry>
        </mxCell>
        <mxCell id="GIkkizemVKNsBk6xvGax-15" value="Int&lt;div&gt;Block&lt;/div&gt;" style="rounded=1;whiteSpace=wrap;html=1;fillColor=#dae8fc;strokeColor=#6c8ebf;" vertex="1" parent="1">
          <mxGeometry x="630" y="320" width="120" height="60" as="geometry" />
        </mxCell>
        <mxCell id="GIkkizemVKNsBk6xvGax-16" value="ROB" style="rounded=1;whiteSpace=wrap;html=1;fillColor=#dae8fc;strokeColor=#6c8ebf;" vertex="1" parent="1">
          <mxGeometry x="510" y="440" width="240" height="60" as="geometry" />
        </mxCell>
        <mxCell id="GIkkizemVKNsBk6xvGax-18" value="Excp&lt;div&gt;Manage&lt;br&gt;&lt;div&gt;Logic&lt;/div&gt;&lt;/div&gt;" style="rounded=1;whiteSpace=wrap;html=1;fillColor=#d5e8d4;strokeColor=#82b366;" vertex="1" parent="1">
          <mxGeometry x="510" y="500" width="240" height="60" as="geometry" />
        </mxCell>
        <mxCell id="GIkkizemVKNsBk6xvGax-41" style="edgeStyle=orthogonalEdgeStyle;rounded=0;orthogonalLoop=1;jettySize=auto;html=1;exitX=0;exitY=0.5;exitDx=0;exitDy=0;entryX=1;entryY=0.5;entryDx=0;entryDy=0;" edge="1" parent="1" source="GIkkizemVKNsBk6xvGax-20" target="GIkkizemVKNsBk6xvGax-29">
          <mxGeometry relative="1" as="geometry">
            <Array as="points">
              <mxPoint x="390" y="590" />
              <mxPoint x="390" y="530" />
            </Array>
          </mxGeometry>
        </mxCell>
        <mxCell id="GIkkizemVKNsBk6xvGax-20" value="Arch&lt;div&gt;RAT&lt;/div&gt;&lt;div&gt;Freelist&lt;/div&gt;" style="rounded=1;whiteSpace=wrap;html=1;fillColor=#dae8fc;strokeColor=#6c8ebf;" vertex="1" parent="1">
          <mxGeometry x="510" y="560" width="120" height="60" as="geometry" />
        </mxCell>
        <mxCell id="GIkkizemVKNsBk6xvGax-21" value="Arch&lt;div&gt;Regfile&lt;/div&gt;&lt;div&gt;（debug）&lt;/div&gt;" style="rounded=1;whiteSpace=wrap;html=1;fillColor=#b0e3e6;strokeColor=#0e8088;dashed=1;" vertex="1" parent="1">
          <mxGeometry x="630" y="560" width="120" height="60" as="geometry" />
        </mxCell>
        <mxCell id="GIkkizemVKNsBk6xvGax-22" value="PreDecoder&lt;div&gt;PreChecker&lt;/div&gt;" style="rounded=1;whiteSpace=wrap;html=1;fillColor=#d5e8d4;strokeColor=#82b366;" vertex="1" parent="1">
          <mxGeometry x="110" y="320" width="240" height="60" as="geometry" />
        </mxCell>
        <mxCell id="GIkkizemVKNsBk6xvGax-26" value="Write Back" style="text;html=1;align=center;verticalAlign=middle;whiteSpace=wrap;rounded=0;rotation=-90;" vertex="1" parent="1">
          <mxGeometry x="445" y="290" width="60" height="30" as="geometry" />
        </mxCell>
        <mxCell id="GIkkizemVKNsBk6xvGax-29" value="Freelist" style="rounded=1;whiteSpace=wrap;html=1;fillColor=#b1ddf0;strokeColor=#10739e;" vertex="1" parent="1">
          <mxGeometry x="240" y="510" width="80" height="40" as="geometry" />
        </mxCell>
        <mxCell id="GIkkizemVKNsBk6xvGax-36" value="Scheduler&lt;div&gt;(stage1)&lt;/div&gt;" style="rounded=1;whiteSpace=wrap;html=1;fillColor=#dae8fc;strokeColor=#6c8ebf;spacingRight=80;" vertex="1" parent="1">
          <mxGeometry x="110" y="560" width="240" height="60" as="geometry" />
        </mxCell>
        <mxCell id="GIkkizemVKNsBk6xvGax-37" value="RAT" style="rounded=1;whiteSpace=wrap;html=1;fillColor=#b1ddf0;strokeColor=#10739e;" vertex="1" parent="1">
          <mxGeometry x="240" y="570" width="80" height="40" as="geometry" />
        </mxCell>
        <mxCell id="GIkkizemVKNsBk6xvGax-38" value="RS" style="rounded=1;whiteSpace=wrap;html=1;fillColor=#b1ddf0;strokeColor=#10739e;" vertex="1" parent="1">
          <mxGeometry x="640" y="210" width="80" height="40" as="geometry" />
        </mxCell>
        <mxCell id="GIkkizemVKNsBk6xvGax-42" style="edgeStyle=orthogonalEdgeStyle;rounded=0;orthogonalLoop=1;jettySize=auto;html=1;exitX=0;exitY=0.5;exitDx=0;exitDy=0;entryX=1;entryY=0.5;entryDx=0;entryDy=0;" edge="1" parent="1" source="GIkkizemVKNsBk6xvGax-20" target="GIkkizemVKNsBk6xvGax-37">
          <mxGeometry relative="1" as="geometry" />
        </mxCell>
        <mxCell id="GIkkizemVKNsBk6xvGax-45" value="MMU" style="rounded=1;whiteSpace=wrap;html=1;fillColor=#dae8fc;strokeColor=#6c8ebf;" vertex="1" parent="1">
          <mxGeometry x="370" y="380" width="120" height="60" as="geometry" />
        </mxCell>
        <mxCell id="GIkkizemVKNsBk6xvGax-46" value="CSR" style="rounded=1;whiteSpace=wrap;html=1;fillColor=#dae8fc;strokeColor=#6c8ebf;" vertex="1" parent="1">
          <mxGeometry x="370" y="440" width="120" height="60" as="geometry" />
        </mxCell>
      </root>
    </mxGraphModel>
  </diagram>
</mxfile>
